<?xml version="1.0" encoding="UTF-8" standalone="no"?>
<!-- Created with Inkscape (http://www.inkscape.org/) -->

<svg
   width="210mm"
   height="297mm"
   viewBox="0 0 210 297"
   version="1.1"
   id="svg1"
   sodipodi:docname="sistema_fotovoltaico.svg"
   inkscape:version="1.4 (86a8ad7, 2024-10-11)"
   xmlns:inkscape="http://www.inkscape.org/namespaces/inkscape"
   xmlns:sodipodi="http://sodipodi.sourceforge.net/DTD/sodipodi-0.dtd"
   xmlns:xlink="http://www.w3.org/1999/xlink"
   xmlns="http://www.w3.org/2000/svg"
   xmlns:svg="http://www.w3.org/2000/svg">
  <sodipodi:namedview
     id="namedview1"
     pagecolor="#ffffff"
     bordercolor="#000000"
     borderopacity="0.25"
     inkscape:showpageshadow="2"
     inkscape:pageopacity="0.0"
     inkscape:pagecheckerboard="0"
     inkscape:deskcolor="#d1d1d1"
     inkscape:document-units="mm"
     inkscape:zoom="0.65477694"
     inkscape:cx="397.08179"
     inkscape:cy="561.25984"
     inkscape:window-width="1920"
     inkscape:window-height="974"
     inkscape:window-x="-11"
     inkscape:window-y="-11"
     inkscape:window-maximized="1"
     inkscape:current-layer="layer1" />
  <defs
     id="defs1">
    <pattern
       xlink:href="#shading10"
       preserveAspectRatio="xMidYMid"
       id="pattern15"
       patternTransform="matrix(1.7850326,0.0104831,-0.01506979,2.5660405,348.96901,435.62659)"
       x="0"
       y="0" />
    <pattern
       patternUnits="userSpaceOnUse"
       width="426.6123"
       height="55.4942"
       patternTransform="translate(231.9442,203.8797)"
       preserveAspectRatio="xMidYMid"
       id="shading10"
       style="fill:#000000">
      <path
         id="use37"
         style="stroke-width:0.315146;stroke-linecap:square;paint-order:markers fill stroke;stop-color:#000000"
         d="m 420.5733,0 h 0.2749 c 0.024,8.9645 5.7641,19.2925 5.7641,27.7471 0,8.4545 -5.7641,15.465 -5.7641,27.7471 h -0.2749 c 0,-12.8073 5.6908,-20.0005 5.6908,-27.7471 1e-4,-7.7466 -5.6292,-16.6995 -5.6908,-27.7471 z m -16.5687,0 h 1.0155 c 0.023,9.4488 5.2737,18.9076 5.2737,27.7471 0,8.8395 -5.2737,15.1536 -5.2737,27.7471 h -1.0155 c 0,-12.8543 5.2089,-19.5988 5.209,-27.7471 0,-8.1483 -5.1498,-16.3841 -5.209,-27.7471 z m -16.5687,0 h 1.7561 c 0.023,9.933 4.7832,18.5227 4.7832,27.7471 0,9.2244 -4.7832,14.8421 -4.7832,27.7471 h -1.7561 c 0,-12.9013 4.7271,-19.1972 4.7271,-27.7471 0,-8.55 -4.6704,-16.0687 -4.7271,-27.7471 z m -16.5687,0 h 2.4967 c 0.022,10.4173 4.2928,18.1377 4.2928,27.7471 0,9.6093 -4.2928,14.5307 -4.2928,27.7471 h -2.4967 c 0,-12.9482 4.2452,-18.7955 4.2452,-27.7471 1e-4,-8.9516 -4.191,-15.7533 -4.2452,-27.7471 z m -16.5687,0 h 3.2373 c 0.02,10.9016 3.8024,17.7528 3.8024,27.7471 0,9.9943 -3.8024,14.2192 -3.8024,27.7471 h -3.2373 c 0,-12.9952 3.7634,-18.3938 3.7634,-27.7471 0,-9.3533 -3.7117,-15.4379 -3.7634,-27.7471 z m -16.5687,0 h 3.9779 c 0.02,11.3858 3.3119,17.3679 3.3119,27.7471 0,10.3792 -3.3119,13.9077 -3.3119,27.7471 h -3.9779 c 0,-13.0422 3.2815,-17.9921 3.2815,-27.7471 0,-9.755 -3.2322,-15.1225 -3.2815,-27.7471 z M 321.161,0 h 4.7186 c 0.019,11.8701 2.8215,16.983 2.8215,27.7471 0,10.7641 -2.8215,13.5963 -2.8215,27.7471 h -4.7186 c 0,-13.0891 2.7997,-17.5905 2.7997,-27.7471 C 323.9608,17.5904 321.2079,12.94 321.161,0 Z m -16.5687,0 h 5.4592 c 0.018,12.3544 2.3311,16.598 2.3311,27.7471 0,11.149 -2.3311,13.2848 -2.3311,27.7471 h -5.4592 c 0,-13.1361 2.3179,-17.1888 2.3179,-27.7471 0,-10.5583 -2.2735,-14.4917 -2.3179,-27.7471 z m -16.5687,0 h 6.1998 c 0.017,12.8386 1.8406,16.2131 1.8406,27.7471 0,11.534 -1.8406,12.9733 -1.8406,27.7471 h -6.1998 c 0,-13.1831 1.836,-16.7871 1.836,-27.7471 0,-10.96 -1.7941,-14.1763 -1.836,-27.7471 z m -16.5687,0 h 6.9404 c 0.016,13.3229 1.3502,15.8282 1.3502,27.7471 0,11.9189 -1.3502,12.6619 -1.3502,27.7471 h -6.9404 c 0,-13.23 1.3541,-16.3854 1.3541,-27.7471 C 272.8091,16.3854 271.4943,13.8861 271.4549,0 Z m -16.5687,0 h 7.6811 c 0.015,13.8072 0.8597,15.4432 0.8597,27.7471 0,12.3038 -0.8597,12.3504 -0.8597,27.7471 h -7.6811 c 0,-13.277 0.8723,-15.9838 0.8723,-27.7471 0,-11.7634 -0.8353,-13.5456 -0.8723,-27.7471 z m -16.5687,0 h 8.4217 c 0.014,14.2914 0.3692,15.0583 0.3692,27.7471 0,12.6888 -0.3692,12.039 -0.3692,27.7471 h -8.4217 c 0,-13.324 0.3904,-15.5821 0.3904,-27.7471 0,-12.165 -0.3559,-13.2302 -0.3904,-27.7471 z m -16.5687,0 h 9.1623 c 0.013,14.7757 -0.1212,14.6734 -0.1212,27.7471 0,13.0737 0.1212,11.7275 0.1212,27.7471 h -9.1623 c 0,-13.3709 -0.091,-15.1804 -0.091,-27.7471 1e-4,-12.5667 0.1235,-12.9148 0.091,-27.7471 z m -16.5687,0 h 9.9029 c 0.012,15.26 -0.6116,14.2884 -0.6116,27.7471 0,13.4586 0.6116,11.416 0.6116,27.7471 h -9.9029 c 0,-13.4179 -0.5733,-14.7788 -0.5733,-27.7471 0,-12.9684 0.6028,-12.5994 0.5733,-27.7471 z m -16.5687,0 h 10.6435 c 0.011,15.7442 -1.102,13.9035 -1.102,27.7471 0,13.8436 1.102,11.1046 1.102,27.7471 h -10.6435 c 0,-13.4649 -1.0552,-14.3771 -1.0552,-27.7471 0,-13.3701 1.0823,-12.284 1.0552,-27.7471 z m -16.5688,0 h 11.3842 c 0.01,16.2285 -1.5925,13.5186 -1.5925,27.7471 0,14.2285 1.5925,10.7931 1.5925,27.7471 h -11.3842 c 0,-13.5118 -1.537,-13.9754 -1.537,-27.7471 1e-4,-13.7717 1.5617,-11.9686 1.537,-27.7471 z m -16.5687,0 h 12.1248 c 0.01,16.7128 -2.0829,13.1336 -2.0829,27.7471 0,14.6134 2.0829,10.4816 2.0829,27.7471 h -12.1248 c 0,-13.5588 -2.0188,-13.5737 -2.0188,-27.7471 0,-14.1734 2.041,-11.6532 2.0188,-27.7471 z m -16.5687,0 h 12.8654 c 0.01,17.197 -2.5733,12.7487 -2.5733,27.7471 0,14.9984 2.5733,10.1702 2.5733,27.7471 h -12.8654 c 0,-13.6058 -2.5007,-13.1721 -2.5007,-27.7471 0,-14.5751 2.5204,-11.3378 2.5007,-27.7471 z m -16.5687,0 h 13.606 c 0.01,17.6813 -3.0638,12.3638 -3.0638,27.7471 0,15.3833 3.0638,9.8587 3.0638,27.7471 h -13.606 c 0,-13.6527 -2.9826,-12.7704 -2.9826,-27.7471 1e-4,-14.9767 2.9999,-11.0224 2.9826,-27.7471 z m -16.5687,0 h 14.3466 c 0.01,18.1656 -3.5542,11.9788 -3.5542,27.7471 0,15.7682 3.5542,9.5472 3.5542,27.7471 h -14.3466 c 0,-13.6997 -3.4644,-12.3687 -3.4644,-27.7471 0,-15.3784 3.4792,-10.7071 3.4644,-27.7471 z M 89.1991,0 h 15.0872 c 0,18.6498 -4.0446,11.5939 -4.0446,27.7471 0,16.1532 4.0446,9.2358 4.0446,27.7471 H 89.1991 c 0,-13.7467 -3.9463,-11.967 -3.9463,-27.7471 C 85.2528,11.967 89.2114,17.3554 89.1991,0 Z M 72.6304,0 h 15.8278 c 0,19.1341 -4.5351,11.209 -4.5351,27.7471 0,16.5381 4.5351,8.9243 4.5351,27.7471 H 72.6304 c 0,-13.7936 -4.4282,-11.5654 -4.4282,-27.7471 C 68.2023,11.5653 72.6402,17.6708 72.6304,0 Z M 56.0617,0 h 16.5684 c 0,19.6184 -5.0255,10.824 -5.0255,27.7471 0,16.923 5.0255,8.6129 5.0255,27.7471 H 56.0617 c 0,-13.8406 -4.91,-11.1637 -4.91,-27.7471 0,-16.5834 4.9174,-9.7609 4.91,-27.7471 z M 39.493,0 h 17.3091 c 0,20.1026 -5.516,10.4391 -5.516,27.7471 0,17.3079 5.516,8.3014 5.516,27.7471 H 39.493 c 0,-13.8876 -5.3919,-10.762 -5.3919,-27.7471 C 34.1011,10.762 39.4979,18.3016 39.493,0 Z M 22.9242,0 H 40.974 c 9e-4,20.5869 -6.0064,10.0542 -6.0064,27.7471 0,17.6929 6.0064,7.9899 6.0064,27.7471 H 22.9242 c 0,-13.9346 -5.8737,-10.3604 -5.8737,-27.7471 0,-17.3868 5.8762,-9.1301 5.8737,-27.7471 z M 6.3555,0 h 18.7904 c 0,21.0712 -6.4969,9.6693 -6.4969,27.7471 0,18.0778 6.4969,7.6785 6.4969,27.7471 H 6.3555 C 6.3555,41.5127 0,45.5355 0,27.7471 0,9.9586 6.3555,18.9324 6.3555,0 Z" />
    </pattern>
    <symbol
       id="sjjb-power.svg:station_solar"
       viewBox="0 0 504.42743 512.16327">
      <title
         id="title6">Power station (solar)</title>
      <path
         d="M 347.55397,0.00113108 A 10.001,10.001 0 0 0 337.70436,10.143709 v 47.853516 a 10.001,10.001 0 1 0 20,0 V 10.143709 A 10.001,10.001 0 0 0 347.55397,0.00113108 Z M 277.99147,16.508944 a 10.001,10.001 0 0 0 -8.83204,14.757812 l 22.16211,42.414063 a 10.001,10.001 0 1 0 17.72461,-9.263672 L 286.88404,22.003084 a 10.001,10.001 0 0 0 -8.89257,-5.49414 z m 140.28711,1.736328 a 10.001,10.001 0 0 0 -8.59375,5.490234 l -22.16211,42.414063 a 10.001,10.001 0 1 0 17.72656,9.261718 L 427.41139,32.997225 A 10.001,10.001 0 0 0 418.27858,18.245272 Z M 221.75514,69.251131 a 10.001,10.001 0 0 0 -4.80664,18.578126 l 40.71875,25.142583 A 10.001,10.001 0 1 0 268.17506,95.954257 L 227.45631,70.811678 a 10.001,10.001 0 0 0 -5.70117,-1.560547 z m 252.75781,1.72461 a 10.001,10.001 0 0 0 -5.39844,1.566406 l -40.71875,25.14258 a 10.001,10.001 0 1 0 10.50782,17.017583 L 479.62233,89.559727 A 10.001,10.001 0 0 0 474.51295,70.975741 Z M 348.86647,82.727697 c -39.95383,0 -72.45118,32.497353 -72.45118,72.451173 0,39.95383 32.49735,72.44922 72.45118,72.44922 39.95382,0 72.44922,-32.49539 72.44922,-72.44922 0,-39.95382 -32.4954,-72.451173 -72.44922,-72.451173 z m -98.74805,62.359383 -47.85352,0.0918 a 10.001,10.001 0 1 0 0.0371,20 l 47.85547,-0.0918 a 10.001,10.001 0 1 0 -0.0391,-20 z m 244.14844,0.98437 -47.85352,0.0918 a 10.001,10.001 0 1 0 0.0371,20 l 47.85547,-0.0918 a 10.001,10.001 0 1 0 -0.0391,-20 z m -231.20117,50.64063 a 10.001,10.001 0 0 0 -5.39844,1.5664 l -40.71875,25.14258 a 10.001,10.001 0 1 0 10.50781,17.01562 l 40.71875,-25.14062 a 10.001,10.001 0 0 0 -5.10937,-18.58398 z m 170.13671,0.004 a 10.001,10.001 0 0 0 -4.80664,18.58008 l 40.71875,25.14062 a 10.001,10.001 0 1 0 10.50782,-17.01562 l -40.71875,-25.14258 a 10.001,10.001 0 0 0 -5.70118,-1.5625 z m -36.84765,35.35938 a 10.001,10.001 0 0 0 -8.83203,14.75586 l 22.16211,42.41406 a 10.001,10.001 0 1 0 17.72656,-9.26172 L 405.24928,237.5696 a 10.001,10.001 0 0 0 -8.89453,-5.49414 z m -96.44141,0.004 a 10.001,10.001 0 0 0 -8.5918,5.49024 l -22.16211,42.41386 a 10.001,10.001 0 1 0 17.72461,9.26172 l 22.16211,-42.41406 a 10.001,10.001 0 0 0 -9.13281,-14.75196 z m 48.80274,7.03125 a 10.001,10.001 0 0 0 -9.81836,9.28516 10.001,10.001 0 0 0 -1.19336,4.85547 v 47.85547 a 10.001,10.001 0 0 0 19.9707,0.85547 10.001,10.001 0 0 0 1.19141,-4.85547 V 249.25134 A 10.001,10.001 0 0 0 348.71608,239.11051 Z M 48.61061,360.05387 c -6.18495,-0.009 -12.106888,4.46701 -13.785156,10.41992 l -6.541016,23.06055 H 90.00123 l 4.10156,-33.48047 z m 69.36718,0 -4.10351,33.48047 h 73.43359 l 2.2168,-33.48047 z m 95.23633,0 -2.21875,33.48047 h 69.92188 l -2.21875,-33.48047 z m 89.17383,0 2.2168,33.48047 h 73.43359 l -4.10351,-33.48047 z m 95.42188,0 4.10156,33.48047 h 61.7168 l -6.54102,-23.06055 c -1.67827,-5.95291 -7.6002,-10.42799 -13.78516,-10.41992 z M 23.591082,412.45622 13.575457,447.93473 h 70.033202 l 4.35938,-35.47851 z m 88.251958,0 -4.36133,35.47851 h 76.38867 l 2.32813,-35.47851 z m 98.04492,0 -2.32812,35.47851 h 76.79296 l -2.32812,-35.47851 z m 95.82617,0 2.32813,35.47851 h 76.38867 l -4.36133,-35.47851 z m 98.23047,0 4.35938,35.47851 h 70.0332 L 468.32155,412.45622 Z M 7.514911,469.22184 0.530536,493.9445 c -1.20612,4.23593 -0.324707,9.01356 2.328125,12.52929 2.652834,3.51572 7.015632,5.68695 11.419922,5.68946 h 61.457031 l 5.28515,-42.94141 z m 97.343749,0 -5.248046,42.94141 h 80.009766 l 2.84571,-42.94141 z m 101.29688,0 -2.8457,42.94141 h 85.29296 l -2.8457,-42.94141 z m 103.29101,0 2.84571,42.94141 h 80.00976 l -5.24804,-42.94141 z m 101.44532,0 5.28515,42.94141 h 61.45703 c 4.40428,-0.002 8.7671,-2.17374 11.41993,-5.68946 2.65284,-3.51573 3.53424,-8.29336 2.32812,-12.52929 l -6.98437,-24.72266 z"
         id="path7" />
    </symbol>
    <symbol
       id="MapSymbolsNPS.svg:Shelter">
      <title
         id="title221">Shelter</title>
      <path
         d="M 12.5,61 H 64 V 55.5 H 18 v -20 l 46,-21 V 9 L 7,35 v 5.5 L 12.5,38 Z"
         style="stroke:none"
         id="path222" />
    </symbol>
    <symbol
       id="sjjb-power.svg:tower_high"
       viewBox="0 0 527.57227 435.55222">
      <title
         id="title13">Transmission tower (high)</title>
      <path
         opacity="0.5"
         d="M 12.699219,0 0,20.363286 c 0,0 132.5537,82.533214 263.54297,6.24414 30.41721,16.20492 148.84911,70.0744 264.02929,-2.87305 L 514.73047,3.458984 C 393.71671,80.101036 268.69922,1.999999 268.69922,2 l -4.77539,7.658203 -5.19336,-8.199219 C 137.71671,78.101036 12.69922,0 12.69922,0 Z m 0,74.000006 L 0,94.363286 c 0,0 132.5537,82.533214 263.54297,6.244144 30.41721,16.20492 148.84911,70.0744 264.02929,-2.873054 L 514.73047,77.458986 C 393.71671,154.10104 268.69922,76.000006 268.69922,76.000006 l -4.77539,7.6582 -5.19336,-8.19922 C 137.71671,152.10104 12.69922,74.000006 12.69922,74.000006 Z"
         id="path14" />
      <path
         d="m 262.57226,0.095703 a 9.9056297,9.9056297 0 0 0 -9.47461,9.755859 v 8.47852 C 251.94602,40.814516 246.91537,102.19881 232.41211,172.94727 215.47047,255.59033 185.4132,352.21126 134.9375,419.5879 a 9.9056297,9.9056297 0 1 0 15.85351,11.87695 c 13.83058,-18.4615 26.08895,-38.74432 36.97852,-60.11133 a 7.7116452,7.7116452 0 0 0 3.00195,-1.77148 l 72.42188,-67.03906 72.41992,67.03906 a 7.7116452,7.7116452 0 0 0 3.16992,1.82031 c 10.8254,21.18132 23.0013,41.28778 36.72266,59.60352 a 9.9056297,9.9056297 0 1 0 15.85351,-11.87696 C 340.88368,351.75223 310.82444,255.13136 293.88281,172.48829 279.38715,101.77691 274.35433,40.421752 273.19922,17.908202 V 10.310546 A 9.9056297,9.9056297 0 0 0 271.375,4.722658 9.9056297,9.9056297 0 0 0 262.57226,0.095705 Z m 0.60938,112.099617 c 2.87576,19.57029 6.55114,41.12887 11.29492,64.26953 1.65358,8.06634 3.42993,16.26917 5.33008,24.56836 l -16.44141,15.2207 -16.71289,-15.4707 c 1.83886,-8.05706 3.55959,-16.02109 5.16602,-23.85742 4.78081,-23.32129 8.47762,-45.039 11.36328,-64.73047 z m -19.83399,102.60156 10.79492,9.99414 -17.55078,16.2461 c 2.40215,-8.80437 4.64806,-17.56254 6.75586,-26.24024 z m 39.76953,0.24414 c 2.06447,8.47257 4.26234,17.02125 6.60743,25.61328 l -17.13868,-15.86523 z m -19.7539,18.28516 26.23047,24.28125 a 7.7116452,7.7116452 0 0 0 -2.06641,1.39648 l -24.33398,22.52539 -24.33399,-22.52539 a 7.7116452,7.7116452 0 0 0 -1.83789,-1.29296 z m 34.93359,36.70312 c 6.95871,22.36485 14.96727,44.70612 24.1836,66.38086 l -47.93555,-44.37304 23.45898,-21.7168 a 7.7116452,7.7116452 0 0 0 0.29297,-0.29102 z m -70.16992,0.0449 a 7.7116452,7.7116452 0 0 0 0.25586,0.24609 l 23.45898,21.7168 -47.75781,44.20898 c 9.16157,-21.61362 17.12107,-43.88317 24.04297,-66.17187 z"
         id="path15" />
      <path
         opacity="0.5"
         d="M 11.642578,1.697265 1.058594,18.666016 c 0,0 132.156836,82.309064 262.431636,5.65625 28.49809,15.38249 147.43188,70.92322 263.01172,-2.27734 L 515.80078,5.148437 C 393.74278,82.451836 267.64257,3.697265 267.64257,3.697265 l -3.71874,5.960938 -4.12305,-6.509766 C 137.74278,80.451836 11.642584,1.697265 11.642584,1.697265 Z m 0,74.000001 -10.583984,16.96875 c 0,0 132.156836,82.309064 262.431636,5.65625 28.49809,15.382494 147.43188,70.923224 263.01172,-2.27734 l -10.70117,-16.89648 c -122.058,77.303384 -248.15821,-1.45118 -248.15821,-1.45118 l -3.71874,5.96094 -4.12305,-6.50976 C 137.74278,154.45184 11.642584,75.697266 11.642584,75.697266 Z"
         id="path16" />
    </symbol>
    <symbol
       id="sjjb-power.svg:tower_high2"
       viewBox="0 0 522.60352 444.57257">
      <title
         id="title16">Transmission tower (high) 2</title>
      <path
         d="M 251.21484,7.3621533e-4 A 12.50125,12.50125 0 0 0 238.84961,12.625736 l -0.0625,14.277344 -48.52539,-0.208984 a 12.50125,12.50125 0 1 0 -0.10743,25.000008 l 48.5254,0.20898 -0.18555,42.99805 -48.23242,-0.20703 a 12.50125,12.50125 0 1 0 -0.10743,24.999996 l 48.23243,0.20703 -0.14844,34.54687 a 12.50125,12.50125 0 0 0 -0.6582,1.47071 l -102.55274,271.5371 a 12.50125,12.50125 0 1 0 23.38867,8.83204 l 16.39063,-43.39649 87.58008,-70.94336 86.46093,70.03711 16.73243,44.30274 a 12.50125,12.50125 0 1 0 23.38671,-8.83204 L 286.41601,155.91871 a 12.50125,12.50125 0 0 0 -1.17187,-2.38868 l 0.14258,-33.42578 50.42382,0.2168 a 12.50125,12.50125 0 1 0 0.10743,-24.999996 l -50.42383,-0.2168 0.18555,-42.99804 50.13085,0.21484 a 12.50125,12.50125 0 1 0 0.10743,-25.000005 l -50.13086,-0.214844 0.0625,-14.373047 A 12.50125,12.50125 0 0 0 273.21484,7.3621533e-4 12.50125,12.50125 0 0 0 262.35547,6.5827684 12.50125,12.50125 0 0 0 251.21484,7.3621533e-4 Z M 261.71875,164.42261 a 12.50125,12.50125 0 0 0 2.35156,3.08984 l 15.26367,40.41797 -16.77539,15.5293 -17.60742,-16.29883 15.34961,-40.64648 a 12.50125,12.50125 0 0 0 1.41797,-2.0918 z m -21.54688,55.39063 13.16406,12.18359 -27.31445,25.28711 z m 43.94141,0.76757 13.25781,35.10743 -25.5918,-23.69141 z m -21.55469,19.95313 35.39063,32.76172 -35.5625,28.80469 -35.37891,-28.65821 z m -46.7207,43.70898 34.29687,27.78125 -64.52929,52.27149 z m 92.5,0.48243 29.70898,78.66406 -63.4082,-51.36524 z"
         id="path17" />
      <path
         opacity="0.5"
         d="M 11.08789,30.811283 0,43.967533 c 0,0 25.589968,21.644881 63.59375,32.623051 38.00378,10.97817 89.75721,10.94211 139.05859,-31.251954 L 191.46679,32.268314 C 146.57975,70.684424 102.57648,69.942774 68.36914,60.061284 34.161799,50.179804 11.087888,30.811283 11.087888,30.811283 Z m 500.42773,0 c 0,0 -23.07391,19.368521 -57.28125,29.250001 -34.20734,9.88149 -78.21061,10.62314 -123.09765,-27.79297 l -11.1875,13.070316 c 49.30137,42.194064 101.05676,42.230124 139.06054,31.251954 38.00378,-10.97817 63.59375,-32.623051 63.59375,-32.623051 z M 11.08789,102.81128 0,115.96753 c 0,0 25.589968,21.64488 63.59375,32.62305 38.00378,10.97817 89.75721,10.94211 139.05859,-31.25195 l -11.18555,-13.07032 c -44.88704,38.41611 -88.89031,37.67446 -123.09765,27.79297 -34.207339,-9.88148 -57.28125,-29.25 -57.28125,-29.25 z m 500.42773,0 c 0,0 -23.07391,19.36852 -57.28125,29.25 -34.20734,9.88149 -78.21061,10.62314 -123.09765,-27.79297 l -11.1875,13.07032 c 49.30137,42.19406 101.05676,42.23012 139.06054,31.25195 38.00378,-10.97817 63.59375,-32.62305 63.59375,-32.62305 z"
         id="path18" />
    </symbol>
    <symbol
       id="FlowSymbols.svg:Keying">
      <title
         id="title18">Keying</title>
      <desc
         id="desc18">Operation using a key-driven device, e.g. typing. (IBM)</desc>
      <path
         d="m 25,115 a 65,65 0 0 1 0,-80 h 100 a 65,65 0 0 1 0,80 z"
         style="stroke-width:2"
         id="path18-7" />
    </symbol>
    <symbol
       id="FlowSymbols.svg:Merge">
      <title
         id="title7">Merge</title>
      <desc
         id="desc7">Combine two or more sets of items into one set. (ISO)</desc>
      <path
         d="m 35,35 h 80 l -40,70 z"
         style="stroke-width:2"
         id="path7-4" />
    </symbol>
  </defs>
  <g
     id="layer1">
    <use
       xlink:href="#sjjb-power.svg:station_solar"
       width="504.42743"
       height="512.16327"
       style="fill:#000000;stroke:none"
       id="generator"
       transform="matrix(0.09155223,0,0,0.09653264,84.799069,21.951196)" />
    <use
       xlink:href="#MapSymbolsNPS.svg:Shelter"
       style="fill:#000000;stroke:#000000"
       id="load"
       transform="matrix(0.83880456,0,0,0.84739338,77.910192,80.857554)" />
    <use
       xlink:href="#sjjb-power.svg:tower_high"
       width="527.57227"
       height="435.55222"
       style="fill:#000000;stroke:none"
       id="grid"
       transform="matrix(0.08688835,0,0,0.12820474,85.778014,144.0168)" />
    <use
       xlink:href="#FlowSymbols.svg:Keying"
       style="fill:url(#pattern15);fill-opacity:1;stroke:#000000;stroke-width:15.01840503;stroke-dasharray:none;stroke-opacity:1;stroke-dashoffset:0"
       id="battery"
       transform="matrix(0.3863569,0,0,0.3728322,79.115068,197.11105)" />
    <use
       xlink:href="#FlowSymbols.svg:Merge"
       style="fill:#aaccee;stroke:#000000"
       id="inverter"
       transform="matrix(0.48246403,0,0,0.48048861,71.907035,238.27078)" />
  </g>
</svg>
